Coordinates
version=1
nRows=20
nColumns=30
inDegrees=yes

Units are S.I. units (second, meters, Newtons, ...)
Angles are in degrees.

endheader
time	floatyaw	floatroll	floatpitch	floatx	floaty	floatz	pro_sup_l	deviation_l	flexion_l	cmc_flexion_l	cmc_abduction_l	mp_flexion_l	ip_flexion_l	2mcp_flexion_l	2mcp_abduction_l	2pm_flexion_l	2md_flexion_l	3mcp_flexion_l	3mcp_abduction_l	3pm_flexion_l	3md_flexion_l	4mcp_flexion_l	4mcp_abduction_l	4pm_flexion_l	4md_flexion_l	5mcp_flexion_l	5mcp_abduction_l	5pm_flexion_l	5md_flexion_l
-0.995000	3.029614	-4.103828	101.268469	-0.101939	-0.208800	-0.045649	83.833467	1.659363	-0.214761	14.848961	1.367666	-23.355080	-36.300947	39.679886	7.403836	50.762853	33.667945	26.254567	4.793344	48.973004	30.438651	16.498727	-4.500423	62.076810	39.943677	9.891087	-8.964067	61.039141	40.293135
-0.985000	3.029614	-4.103828	101.268469	-0.101927	-0.208821	-0.045663	83.841151	1.667435	-0.223767	14.853675	1.350596	-23.335871	-36.292844	39.662668	7.425774	50.787126	33.677486	26.276642	4.791183	48.989585	30.450378	16.511962	-4.497407	62.088648	39.949555	9.937157	-8.982105	61.029071	40.283717
-0.975000	3.029614	-4.103828	101.268469	-0.101919	-0.208844	-0.045671	83.846578	1.669399	-0.234096	14.867784	1.325909	-23.304697	-36.277819	39.645472	7.446471	50.809788	33.685655	26.300704	4.794652	48.992695	30.453644	16.511256	-4.490216	62.103760	39.959708	10.005602	-9.021772	61.033545	40.279131
-0.965000	3.029614	-4.103828	101.268469	-0.101913	-0.208868	-0.045676	83.844286	1.666228	-0.247132	14.884633	1.296453	-23.267484	-36.258469	39.632079	7.459013	50.823130	33.688667	26.328763	4.801152	48.980775	30.447392	16.501769	-4.481062	62.121480	39.973857	10.081044	-9.072330	61.051333	40.281035
-0.955000	3.029614	-4.103828	101.268469	-0.101909	-0.208887	-0.045675	83.833022	1.660474	-0.263346	14.893780	1.264930	-23.235214	-36.239960	39.624129	7.459586	50.821231	33.683838	26.361294	4.806592	48.956119	30.433159	16.491882	-4.473271	62.138964	39.989728	10.142888	-9.116525	61.074012	40.287914
-0.945000	3.029614	-4.103828	101.268469	-0.101905	-0.208901	-0.045670	83.816783	1.654609	-0.282000	14.886276	1.233500	-23.218870	-36.227591	39.620699	7.449199	50.803398	33.671399	26.396004	4.807446	48.925244	30.415392	16.489023	-4.469577	62.152213	40.003960	10.174543	-9.138350	61.090202	40.295984
-0.935000	3.029614	-4.103828	101.268469	-0.101905	-0.208909	-0.045658	83.803873	1.650322	-0.301416	14.859648	1.203260	-23.223791	-36.224073	39.618752	7.433123	50.774837	33.654668	26.428356	4.802577	48.896930	30.400058	16.496715	-4.470891	62.158150	40.013597	10.171943	-9.130118	61.091889	40.301272
-0.925000	3.029614	-4.103828	101.268469	-0.101909	-0.208910	-0.045643	83.804168	1.648950	-0.319337	14.819649	1.173979	-23.247008	-36.228326	39.613941	7.418236	50.744237	33.638542	26.453382	4.793854	48.878724	30.392198	16.514225	-4.476300	62.156253	40.017230	10.146501	-9.095354	61.078876	40.301525
-0.915000	3.029614	-4.103828	101.268469	-0.101919	-0.208907	-0.045624	83.825208	1.652203	-0.333319	14.778123	1.144733	-23.278902	-36.236522	39.601823	7.409894	50.720246	33.627520	26.467536	4.785207	48.874070	30.393948	16.538516	-4.484082	62.148812	40.015265	10.120367	-9.046690	61.058727	40.296897
-0.905000	3.029614	-4.103828	101.268469	-0.101932	-0.208899	-0.045609	83.868311	1.662092	-0.341377	14.748550	1.115305	-23.307857	-36.244524	39.579660	7.410134	50.709027	33.624458	26.469578	4.780674	48.881729	30.404201	16.566471	-4.492728	62.139800	40.009434	10.116184	-9.000561	61.042334	40.289231
-0.895000	3.029614	-4.103828	101.268469	-0.101944	-0.208888	-0.045600	83.926333	1.679598	-0.342750	14.741384	1.087480	-23.325299	-36.250219	39.548115	7.417822	50.713383	33.630279	26.460359	4.782536	48.897311	30.419816	16.595393	-4.501117	62.133037	40.002051	10.146567	-8.971567	61.037622	40.280512
-0.885000	3.029614	-4.103828	101.268469	-0.101953	-0.208876	-0.045603	83.984618	1.702825	-0.338232	14.760541	1.065389	-23.328982	-36.254576	39.511649	7.429993	50.732573	33.644111	26.442124	4.790429	48.915556	30.437365	16.621819	-4.508039	62.130601	39.995474	10.208547	-8.968473	61.044882	40.271520
-0.875000	3.029614	-4.103828	101.268469	-0.101955	-0.208867	-0.045619	84.025690	1.726386	-0.329838	14.801900	1.054645	-23.323446	-36.261085	39.477297	7.443129	50.762404	33.663494	26.418061	4.801677	48.932166	30.454455	16.640816	-4.511970	62.132415	39.991900	10.285371	-8.992239	61.056534	40.261657
-0.865000	3.029614	-4.103828	101.268469	-0.101953	-0.208863	-0.045642	84.036379	1.743333	-0.320077	14.854582	1.060464	-23.317641	-36.273996	39.452671	7.453644	50.796043	33.684819	26.392249	4.812475	48.944718	30.470137	16.647628	-4.511617	62.137083	39.993231	10.354029	-9.035682	61.061658	40.250117
-0.855000	3.029614	-4.103828	101.268469	-0.101948	-0.208864	-0.045667	84.014137	1.748976	-0.311268	14.905088	1.085177	-23.320691	-36.296150	39.444060	7.457820	50.825927	33.704162	26.369508	4.819294	48.952660	30.484467	16.640976	-4.506827	62.143013	40.000580	10.394309	-9.084842	61.052490	40.237480
-0.845000	3.029614	-4.103828	101.268469	-0.101945	-0.208868	-0.045688	83.968906	1.744006	-0.305101	14.942775	1.126042	-23.337651	-36.327350	39.454828	7.452158	50.846268	33.718376	26.354583	4.820003	48.956710	30.497693	16.625213	-4.499013	62.148752	40.013422	10.395500	-9.122636	61.028742	40.226285
-0.835000	3.029614	-4.103828	101.268469	-0.101946	-0.208869	-0.045703	83.918987	1.734508	-0.302405	14.963812	1.174471	-23.367273	-36.363999	39.484134	7.434750	50.855082	33.726007	26.350706	4.814482	48.958142	30.509638	16.609075	-4.490647	62.152571	40.029046	10.359135	-9.134652	60.997320	40.219918
-0.825000	3.029614	-4.103828	101.268469	-0.101952	-0.208865	-0.045713	83.882995	1.728739	-0.303104	14.971233	1.217312	-23.402952	-36.400252	39.526425	7.407063	50.854785	33.727590	26.358275	4.804640	48.958348	30.519598	16.601428	-4.484175	62.152303	40.043048	10.297928	-9.114920	60.968013	40.220391
-0.815000	3.029614	-4.103828	101.268469	-0.101962	-0.208856	-0.045722	83.872388	1.733071	-0.306448	14.971282	1.239907	-23.436160	-36.430167	39.572386	7.374545	50.850959	33.725140	26.374633	4.793675	48.958665	30.526649	16.606914	-4.481042	62.146083	40.050862	10.231185	-9.068160	60.947847	40.226457
-0.805000	3.029614	-4.103828	101.268469	-0.101976	-0.208847	-0.045735	83.888445	1.749757	-0.311584	14.968826	1.230015	-23.460273	-36.449815	39.611502	7.345041	50.849693	33.721009	26.395273	4.784661	48.960171	30.530016	16.624358	-4.481363	62.133427	40.049490	10.177412	-9.006403	60.937238	40.233397
